<svg id="visual" viewBox="0 0 1920 1080" width="1920" height="1080" xmlns="http://www.w3.org/2000/svg" xmlns:xlink="http://www.w3.org/1999/xlink" version="1.1"><rect x="0" y="0" width="1920" height="1080" fill="#3DA35D"></rect><defs><linearGradient id="grad1_0" x1="43.8%" y1="0%" x2="100%" y2="100%"><stop offset="14.444444444444446%" stop-color="#96e072" stop-opacity="1"></stop><stop offset="85.55555555555554%" stop-color="#96e072" stop-opacity="1"></stop></linearGradient></defs><defs><linearGradient id="grad1_1" x1="43.8%" y1="0%" x2="100%" y2="100%"><stop offset="14.444444444444446%" stop-color="#96e072" stop-opacity="1"></stop><stop offset="85.55555555555554%" stop-color="#3da35d" stop-opacity="1"></stop></linearGradient></defs><defs><linearGradient id="grad2_0" x1="0%" y1="0%" x2="56.3%" y2="100%"><stop offset="14.444444444444446%" stop-color="#96e072" stop-opacity="1"></stop><stop offset="85.55555555555554%" stop-color="#96e072" stop-opacity="1"></stop></linearGradient></defs><defs><linearGradient id="grad2_1" x1="0%" y1="0%" x2="56.3%" y2="100%"><stop offset="14.444444444444446%" stop-color="#3da35d" stop-opacity="1"></stop><stop offset="85.55555555555554%" stop-color="#96e072" stop-opacity="1"></stop></linearGradient></defs><g transform="translate(1920, 0)"><path d="M0 594C-66.3 559 -132.5 523.9 -207.4 500.7C-282.3 477.6 -365.9 466.3 -420 420C-474.1 373.7 -498.8 292.4 -522.9 216.6C-547 140.8 -570.5 70.4 -594 0L0 0Z" fill="#69c168"></path><path d="M0 297C-33.1 279.5 -66.3 262 -103.7 250.4C-141.2 238.8 -182.9 233.2 -210 210C-237.1 186.9 -249.4 146.2 -261.5 108.3C-273.5 70.4 -285.3 35.2 -297 0L0 0Z" fill="#96e072"></path></g><g transform="translate(0, 1080)"><path d="M0 -594C73.3 -576.2 146.6 -558.4 220.8 -533.1C295 -507.7 370.2 -474.8 420 -420C469.9 -365.3 494.4 -288.7 519.2 -215.1C544 -141.4 569 -70.7 594 0L0 0Z" fill="#69c168"></path><path d="M0 -297C36.6 -288.1 73.3 -279.2 110.4 -266.5C147.5 -253.9 185.1 -237.4 210 -210C234.9 -182.6 247.2 -144.4 259.6 -107.5C272 -70.7 284.5 -35.4 297 0L0 0Z" fill="#96e072"></path></g></svg>